<svg width="355" height="90" viewBox="0 0 355 90" fill="none" xmlns="http://www.w3.org/2000/svg">
<path d="M62.1975 56.7694H39.45" stroke="white" stroke-width="4" stroke-linecap="round" stroke-linejoin="round"/>
<path d="M69.435 65.8631H73.0725M22.2469 65.835H25.8806" stroke="#EA1A1A" stroke-width="4" stroke-linecap="round" stroke-linejoin="round"/>
<path d="M67.7944 39.4931H80.3381V67.5C80.3381 68.9918 79.7455 70.4226 78.6906 71.4775C77.6357 72.5324 76.205 73.125 74.7131 73.125H67.7944C66.3025 73.125 64.8718 72.5324 63.8169 71.4775C62.762 70.4226 62.1694 68.9918 62.1694 67.5V45.1163C62.1694 43.6244 62.762 42.1937 63.8169 41.1388C64.8718 40.0839 66.3025 39.4913 67.7944 39.4913V39.4931ZM15.1369 28.1025H39.1931V67.6181C39.1931 69.11 38.6005 70.5407 37.5456 71.5956C36.4907 72.6505 35.06 73.2431 33.5681 73.2431H15.1369C13.645 73.2431 12.2143 72.6505 11.1594 71.5956C10.1045 70.5407 9.51187 69.11 9.51187 67.6181V33.7238C9.51187 32.2319 10.1045 30.8012 11.1594 29.7463C12.2143 28.6914 13.645 28.0988 15.1369 28.0988V28.1025Z" stroke="white" stroke-width="4" stroke-linecap="round"/>
<path d="M53.9494 65.835H39.1931M46.8975 57.7463L46.9125 64.9275" stroke="white" stroke-width="4" stroke-linecap="round" stroke-linejoin="round"/>
<path d="M76.9462 39.4931V13.1475H21.0938C18.9803 13.1475 16.9534 13.9871 15.459 15.4815C13.9646 16.9759 13.125 19.0028 13.125 21.1162V28.125" stroke="white" stroke-width="4" stroke-linecap="round"/>
<path d="M47.8125 50.625C47.8125 50.8736 47.7137 51.1121 47.5379 51.2879C47.3621 51.4637 47.1236 51.5625 46.875 51.5625C46.6264 51.5625 46.3879 51.4637 46.2121 51.2879C46.0363 51.1121 45.9375 50.8736 45.9375 50.625C45.9375 50.3764 46.0363 50.1379 46.2121 49.9621C46.3879 49.7863 46.6264 49.6875 46.875 49.6875C47.1236 49.6875 47.3621 49.7863 47.5379 49.9621C47.7137 50.1379 47.8125 50.3764 47.8125 50.625Z" fill="#EA1A1A" stroke="#EA1A1A" stroke-width="4"/>
<path d="M46.8994 50.7562C46.9096 50.7579 46.92 50.7574 46.93 50.7546C46.9399 50.7518 46.9492 50.7469 46.957 50.7402C46.9649 50.7336 46.9712 50.7252 46.9756 50.7159C46.9799 50.7065 46.9822 50.6963 46.9822 50.6859C46.9822 50.6756 46.9799 50.6654 46.9756 50.656C46.9712 50.6466 46.9649 50.6383 46.957 50.6316C46.9492 50.6249 46.9399 50.6201 46.93 50.6173C46.92 50.6145 46.9096 50.614 46.8994 50.6156C46.8827 50.6184 46.8675 50.6269 46.8566 50.6398C46.8457 50.6527 46.8397 50.669 46.8397 50.6859C46.8397 50.7028 46.8457 50.7192 46.8566 50.7321C46.8675 50.7449 46.8827 50.7535 46.8994 50.7562V50.7562Z" stroke="#EA1A1A" stroke-width="4" stroke-linecap="round" stroke-linejoin="round"/>
<path d="M132.61 35.748C132.61 36.668 132.487 37.6033 132.242 38.554C132.027 39.474 131.705 40.3327 131.276 41.13C130.847 41.9273 130.31 42.648 129.666 43.292C129.022 43.936 128.286 44.442 127.458 44.81C126.415 45.2393 125.373 45.546 124.33 45.73C123.287 45.8833 122.229 45.96 121.156 45.96H117.154V57H111.358V26.318H120.558C122.03 26.318 123.395 26.4253 124.652 26.64C125.909 26.824 127.121 27.2073 128.286 27.79C129.758 28.526 130.847 29.63 131.552 31.102C132.257 32.5433 132.61 34.092 132.61 35.748ZM126.814 36.116C126.814 35.2573 126.599 34.46 126.17 33.724C125.771 32.988 125.158 32.4667 124.33 32.16C123.809 31.976 123.287 31.838 122.766 31.746C122.245 31.654 121.539 31.608 120.65 31.608H117.154V40.67H120.42C121.248 40.67 121.999 40.624 122.674 40.532C123.379 40.44 123.977 40.2713 124.468 40.026C125.296 39.6273 125.894 39.0753 126.262 38.37C126.63 37.6647 126.814 36.9133 126.814 36.116ZM150.036 57V44.258C150.036 42.418 149.668 41.0993 148.932 40.302C148.227 39.474 147.414 39.06 146.494 39.06C146.034 39.06 145.574 39.1367 145.114 39.29C144.654 39.4127 144.209 39.5813 143.78 39.796C143.381 40.0107 143.013 40.256 142.676 40.532C142.339 40.7773 142.047 41.0073 141.802 41.222V57H136.098V26.318H141.802V36.3C142.507 35.748 143.335 35.2727 144.286 34.874C145.267 34.4753 146.448 34.276 147.828 34.276C149.239 34.276 150.45 34.506 151.462 34.966C152.474 35.426 153.287 36.07 153.9 36.898C154.544 37.726 155.004 38.738 155.28 39.934C155.587 41.0993 155.74 42.4027 155.74 43.844V57H150.036ZM181.217 45.822C181.217 47.2633 180.987 48.6893 180.527 50.1C180.098 51.48 179.439 52.722 178.549 53.826C177.691 54.93 176.587 55.8193 175.237 56.494C173.919 57.1687 172.37 57.506 170.591 57.506C168.813 57.506 167.249 57.1687 165.899 56.494C164.581 55.8193 163.477 54.93 162.587 53.826C161.729 52.722 161.069 51.48 160.609 50.1C160.18 48.6893 159.965 47.2633 159.965 45.822C159.965 44.3807 160.18 42.97 160.609 41.59C161.069 40.21 161.729 38.9833 162.587 37.91C163.477 36.806 164.581 35.932 165.899 35.288C167.249 34.6133 168.813 34.276 170.591 34.276C172.37 34.276 173.919 34.6133 175.237 35.288C176.556 35.932 177.66 36.806 178.549 37.91C179.439 38.9833 180.098 40.21 180.527 41.59C180.987 42.97 181.217 44.3807 181.217 45.822ZM175.605 45.822C175.605 44.902 175.498 44.028 175.283 43.2C175.069 42.372 174.747 41.6667 174.317 41.084C173.888 40.4707 173.367 39.9953 172.753 39.658C172.14 39.29 171.419 39.106 170.591 39.106C169.763 39.106 169.043 39.29 168.429 39.658C167.816 39.9953 167.295 40.4707 166.865 41.084C166.436 41.6667 166.114 42.372 165.899 43.2C165.685 44.028 165.577 44.902 165.577 45.822C165.577 46.7727 165.685 47.662 165.899 48.49C166.114 49.2873 166.421 49.9927 166.819 50.606C167.249 51.2193 167.77 51.71 168.383 52.078C169.027 52.4153 169.763 52.584 170.591 52.584C171.419 52.584 172.14 52.4153 172.753 52.078C173.367 51.71 173.888 51.2193 174.317 50.606C174.747 49.9927 175.069 49.2873 175.283 48.49C175.498 47.662 175.605 46.7727 175.605 45.822ZM199.724 57V44.35C199.724 42.6633 199.371 41.36 198.666 40.44C197.961 39.52 196.979 39.06 195.722 39.06C194.833 39.06 194.005 39.29 193.238 39.75C192.502 40.21 191.858 40.716 191.306 41.268V57H185.602V34.828H190.8L191.076 36.576C191.965 35.84 192.962 35.2727 194.066 34.874C195.201 34.4753 196.335 34.276 197.47 34.276C198.635 34.276 199.709 34.46 200.69 34.828C201.671 35.1653 202.515 35.7173 203.22 36.484C203.925 37.2507 204.462 38.2473 204.83 39.474C205.229 40.7007 205.428 42.1727 205.428 43.89V57H199.724ZM215.399 47.34C215.522 49.2107 216.104 50.56 217.147 51.388C218.19 52.216 219.539 52.63 221.195 52.63C221.962 52.63 222.682 52.5687 223.357 52.446C224.032 52.2927 224.63 52.1087 225.151 51.894C225.672 51.6793 226.117 51.4647 226.485 51.25C226.853 51.0353 227.129 50.836 227.313 50.652L228.831 55.298C228.616 55.4513 228.264 55.666 227.773 55.942C227.313 56.1873 226.73 56.4327 226.025 56.678C225.32 56.8927 224.492 57.0767 223.541 57.23C222.59 57.414 221.548 57.506 220.413 57.506C218.972 57.506 217.592 57.276 216.273 56.816C214.985 56.356 213.85 55.6507 212.869 54.7C211.888 53.7187 211.106 52.5073 210.523 51.066C209.94 49.6247 209.649 47.9073 209.649 45.914C209.649 44.0433 209.91 42.3873 210.431 40.946C210.983 39.5047 211.719 38.2933 212.639 37.312C213.59 36.3307 214.678 35.5793 215.905 35.058C217.162 34.5367 218.496 34.276 219.907 34.276C221.318 34.276 222.621 34.506 223.817 34.966C225.013 35.426 226.04 36.1467 226.899 37.128C227.788 38.0787 228.478 39.3207 228.969 40.854C229.49 42.3873 229.751 44.212 229.751 46.328V47.34H215.399ZM223.955 43.246C223.894 42.4793 223.725 41.82 223.449 41.268C223.204 40.6853 222.882 40.2253 222.483 39.888C222.115 39.52 221.701 39.2593 221.241 39.106C220.812 38.922 220.367 38.83 219.907 38.83C218.926 38.83 217.99 39.198 217.101 39.934C216.212 40.67 215.69 41.774 215.537 43.246H223.955ZM234.444 57V26.318H254.27V31.884H240.332V39.152H251.464V44.626H240.332V57H234.444ZM257.342 57V34.828H263V57H257.342ZM260.194 32.758C259.029 32.758 258.155 32.4207 257.572 31.746C257.02 31.0713 256.744 30.32 256.744 29.492C256.744 28.6947 257.02 27.9587 257.572 27.284C258.155 26.6093 259.029 26.272 260.194 26.272C261.329 26.272 262.172 26.6093 262.724 27.284C263.307 27.9587 263.598 28.6947 263.598 29.492C263.598 30.32 263.307 31.0713 262.724 31.746C262.172 32.4207 261.329 32.758 260.194 32.758ZM282.829 57V44.35C282.829 42.6633 282.477 41.36 281.771 40.44C281.066 39.52 280.085 39.06 278.827 39.06C277.938 39.06 277.11 39.29 276.343 39.75C275.607 40.21 274.963 40.716 274.411 41.268V57H268.707V34.828H273.905L274.181 36.576C275.071 35.84 276.067 35.2727 277.171 34.874C278.306 34.4753 279.441 34.276 280.575 34.276C281.741 34.276 282.814 34.46 283.795 34.828C284.777 35.1653 285.62 35.7173 286.325 36.484C287.031 37.2507 287.567 38.2473 287.935 39.474C288.334 40.7007 288.533 42.1727 288.533 43.89V57H282.829ZM307.52 57L307.29 55.298C306.769 55.8807 306.079 56.402 305.22 56.862C304.362 57.2913 303.35 57.506 302.184 57.506C300.651 57.506 299.302 57.184 298.136 56.54C296.971 55.896 295.99 55.0373 295.192 53.964C294.395 52.8907 293.782 51.6487 293.352 50.238C292.954 48.8273 292.754 47.3553 292.754 45.822C292.754 44.3807 292.969 42.97 293.398 41.59C293.828 40.21 294.472 38.9833 295.33 37.91C296.22 36.806 297.324 35.932 298.642 35.288C299.961 34.6133 301.51 34.276 303.288 34.276C304.454 34.276 305.711 34.4907 307.06 34.92V26.318H312.718V57H307.52ZM307.06 39.75C305.956 39.3207 304.929 39.106 303.978 39.106C302.997 39.106 302.154 39.29 301.448 39.658C300.743 40.026 300.16 40.532 299.7 41.176C299.24 41.7893 298.888 42.4947 298.642 43.292C298.428 44.0587 298.32 44.856 298.32 45.684C298.32 46.604 298.412 47.4933 298.596 48.352C298.811 49.18 299.118 49.916 299.516 50.56C299.946 51.1733 300.467 51.6793 301.08 52.078C301.724 52.446 302.476 52.63 303.334 52.63C304.04 52.63 304.76 52.446 305.496 52.078C306.232 51.6793 306.754 51.2193 307.06 50.698V39.75ZM322.852 47.34C322.975 49.2107 323.557 50.56 324.6 51.388C325.643 52.216 326.992 52.63 328.648 52.63C329.415 52.63 330.135 52.5687 330.81 52.446C331.485 52.2927 332.083 52.1087 332.604 51.894C333.125 51.6793 333.57 51.4647 333.938 51.25C334.306 51.0353 334.582 50.836 334.766 50.652L336.284 55.298C336.069 55.4513 335.717 55.666 335.226 55.942C334.766 56.1873 334.183 56.4327 333.478 56.678C332.773 56.8927 331.945 57.0767 330.994 57.23C330.043 57.414 329.001 57.506 327.866 57.506C326.425 57.506 325.045 57.276 323.726 56.816C322.438 56.356 321.303 55.6507 320.322 54.7C319.341 53.7187 318.559 52.5073 317.976 51.066C317.393 49.6247 317.102 47.9073 317.102 45.914C317.102 44.0433 317.363 42.3873 317.884 40.946C318.436 39.5047 319.172 38.2933 320.092 37.312C321.043 36.3307 322.131 35.5793 323.358 35.058C324.615 34.5367 325.949 34.276 327.36 34.276C328.771 34.276 330.074 34.506 331.27 34.966C332.466 35.426 333.493 36.1467 334.352 37.128C335.241 38.0787 335.931 39.3207 336.422 40.854C336.943 42.3873 337.204 44.212 337.204 46.328V47.34H322.852ZM331.408 43.246C331.347 42.4793 331.178 41.82 330.902 41.268C330.657 40.6853 330.335 40.2253 329.936 39.888C329.568 39.52 329.154 39.2593 328.694 39.106C328.265 38.922 327.82 38.83 327.36 38.83C326.379 38.83 325.443 39.198 324.554 39.934C323.665 40.67 323.143 41.774 322.99 43.246H331.408ZM354.087 39.658C353.842 39.5967 353.55 39.5507 353.213 39.52C352.876 39.4893 352.523 39.474 352.155 39.474C351.082 39.474 350.116 39.7653 349.257 40.348C348.398 40.9 347.678 41.4827 347.095 42.096V57H341.391V34.828H346.589L346.957 37.174C347.202 36.8673 347.509 36.5453 347.877 36.208C348.276 35.8707 348.72 35.564 349.211 35.288C349.702 35.012 350.208 34.7973 350.729 34.644C351.281 34.46 351.848 34.368 352.431 34.368C352.952 34.368 353.458 34.414 353.949 34.506C354.44 34.5673 354.762 34.6287 354.915 34.69L354.087 39.658Z" fill="white"/>
</svg>
