<svg width="539" height="90" viewBox="0 0 539 90" fill="none" xmlns="http://www.w3.org/2000/svg">
<path d="M62.1975 56.7694H39.45" stroke="white" stroke-width="4" stroke-linecap="round" stroke-linejoin="round"/>
<path d="M69.435 65.8631H73.0725M22.2469 65.835H25.8806" stroke="#EA1A1A" stroke-width="4" stroke-linecap="round" stroke-linejoin="round"/>
<path d="M67.7944 39.4931H80.3381V67.5C80.3381 68.9918 79.7455 70.4226 78.6906 71.4775C77.6357 72.5324 76.205 73.125 74.7131 73.125H67.7944C66.3025 73.125 64.8718 72.5324 63.8169 71.4775C62.762 70.4226 62.1694 68.9918 62.1694 67.5V45.1163C62.1694 43.6244 62.762 42.1937 63.8169 41.1388C64.8718 40.0839 66.3025 39.4913 67.7944 39.4913V39.4931ZM15.1369 28.1025H39.1931V67.6181C39.1931 69.11 38.6005 70.5407 37.5456 71.5956C36.4907 72.6505 35.06 73.2431 33.5681 73.2431H15.1369C13.645 73.2431 12.2143 72.6505 11.1594 71.5956C10.1045 70.5407 9.51187 69.11 9.51187 67.6181V33.7238C9.51187 32.2319 10.1045 30.8012 11.1594 29.7463C12.2143 28.6914 13.645 28.0988 15.1369 28.0988V28.1025Z" stroke="white" stroke-width="4" stroke-linecap="round"/>
<path d="M53.9494 65.835H39.1931M46.8975 57.7462L46.9125 64.9275" stroke="white" stroke-width="4" stroke-linecap="round" stroke-linejoin="round"/>
<path d="M76.9462 39.4931V13.1475H21.0938C18.9803 13.1475 16.9534 13.9871 15.459 15.4815C13.9646 16.9759 13.125 19.0028 13.125 21.1162V28.125" stroke="white" stroke-width="4" stroke-linecap="round"/>
<path d="M47.8125 50.625C47.8125 50.8736 47.7137 51.1121 47.5379 51.2879C47.3621 51.4637 47.1236 51.5625 46.875 51.5625C46.6264 51.5625 46.3879 51.4637 46.2121 51.2879C46.0363 51.1121 45.9375 50.8736 45.9375 50.625C45.9375 50.3764 46.0363 50.1379 46.2121 49.9621C46.3879 49.7863 46.6264 49.6875 46.875 49.6875C47.1236 49.6875 47.3621 49.7863 47.5379 49.9621C47.7137 50.1379 47.8125 50.3764 47.8125 50.625Z" fill="#EA1A1A" stroke="#EA1A1A" stroke-width="4"/>
<path d="M46.8994 50.7562C46.9096 50.7579 46.92 50.7574 46.93 50.7546C46.9399 50.7518 46.9492 50.7469 46.957 50.7402C46.9649 50.7335 46.9712 50.7252 46.9756 50.7158C46.9799 50.7065 46.9822 50.6963 46.9822 50.6859C46.9822 50.6756 46.9799 50.6654 46.9756 50.656C46.9712 50.6466 46.9649 50.6383 46.957 50.6316C46.9492 50.6249 46.9399 50.62 46.93 50.6173C46.92 50.6145 46.9096 50.614 46.8994 50.6156C46.8827 50.6184 46.8675 50.6269 46.8566 50.6398C46.8457 50.6527 46.8397 50.669 46.8397 50.6859C46.8397 50.7028 46.8457 50.7192 46.8566 50.7321C46.8675 50.7449 46.8827 50.7535 46.8994 50.7562V50.7562Z" stroke="#EA1A1A" stroke-width="4" stroke-linecap="round" stroke-linejoin="round"/>
<path d="M119.316 57L108 26.318H114.302L122.076 49.548L129.712 26.318H135.508L124.79 57H119.316ZM156.106 45.822C156.106 47.2633 155.876 48.6893 155.416 50.1C154.987 51.48 154.327 52.722 153.438 53.826C152.579 54.93 151.475 55.8193 150.126 56.494C148.807 57.1687 147.259 57.506 145.48 57.506C143.701 57.506 142.137 57.1687 140.788 56.494C139.469 55.8193 138.365 54.93 137.476 53.826C136.617 52.722 135.958 51.48 135.498 50.1C135.069 48.6893 134.854 47.2633 134.854 45.822C134.854 44.3807 135.069 42.97 135.498 41.59C135.958 40.21 136.617 38.9833 137.476 37.91C138.365 36.806 139.469 35.932 140.788 35.288C142.137 34.6133 143.701 34.276 145.48 34.276C147.259 34.276 148.807 34.6133 150.126 35.288C151.445 35.932 152.549 36.806 153.438 37.91C154.327 38.9833 154.987 40.21 155.416 41.59C155.876 42.97 156.106 44.3807 156.106 45.822ZM150.494 45.822C150.494 44.902 150.387 44.028 150.172 43.2C149.957 42.372 149.635 41.6667 149.206 41.084C148.777 40.4707 148.255 39.9953 147.642 39.658C147.029 39.29 146.308 39.106 145.48 39.106C144.652 39.106 143.931 39.29 143.318 39.658C142.705 39.9953 142.183 40.4707 141.754 41.084C141.325 41.6667 141.003 42.372 140.788 43.2C140.573 44.028 140.466 44.902 140.466 45.822C140.466 46.7727 140.573 47.662 140.788 48.49C141.003 49.2873 141.309 49.9927 141.708 50.606C142.137 51.2193 142.659 51.71 143.272 52.078C143.916 52.4153 144.652 52.584 145.48 52.584C146.308 52.584 147.029 52.4153 147.642 52.078C148.255 51.71 148.777 51.2193 149.206 50.606C149.635 49.9927 149.957 49.2873 150.172 48.49C150.387 47.662 150.494 46.7727 150.494 45.822ZM173.923 57L173.693 55.298C173.171 55.8807 172.481 56.402 171.623 56.862C170.764 57.2913 169.752 57.506 168.587 57.506C167.053 57.506 165.704 57.184 164.539 56.54C163.373 55.896 162.392 55.0373 161.595 53.964C160.797 52.8907 160.184 51.6487 159.755 50.238C159.356 48.8273 159.157 47.3553 159.157 45.822C159.157 44.3807 159.371 42.97 159.801 41.59C160.23 40.21 160.874 38.9833 161.733 37.91C162.622 36.806 163.726 35.932 165.045 35.288C166.363 34.6133 167.912 34.276 169.691 34.276C170.856 34.276 172.113 34.4907 173.463 34.92V26.318H179.121V57H173.923ZM173.463 39.75C172.359 39.3207 171.331 39.106 170.381 39.106C169.399 39.106 168.556 39.29 167.851 39.658C167.145 40.026 166.563 40.532 166.103 41.176C165.643 41.7893 165.29 42.4947 165.045 43.292C164.83 44.0587 164.723 44.856 164.723 45.684C164.723 46.604 164.815 47.4933 164.999 48.352C165.213 49.18 165.52 49.916 165.919 50.56C166.348 51.1733 166.869 51.6793 167.483 52.078C168.127 52.446 168.878 52.63 169.737 52.63C170.442 52.63 171.163 52.446 171.899 52.078C172.635 51.6793 173.156 51.2193 173.463 50.698V39.75ZM196.476 57L196.246 55.344C195.633 56.0187 194.851 56.5553 193.9 56.954C192.95 57.322 191.907 57.506 190.772 57.506C189.822 57.506 188.902 57.3373 188.012 57C187.154 56.6933 186.387 56.2487 185.712 55.666C185.038 55.0527 184.486 54.3167 184.056 53.458C183.658 52.5687 183.458 51.572 183.458 50.468C183.458 49.364 183.673 48.398 184.102 47.57C184.532 46.7113 185.114 45.9907 185.85 45.408C186.586 44.8253 187.43 44.35 188.38 43.982C189.331 43.614 190.328 43.338 191.37 43.154C192.106 43.0007 192.904 42.8933 193.762 42.832C194.652 42.74 195.388 42.6633 195.97 42.602V42.28C195.97 41.0533 195.648 40.1793 195.004 39.658C194.391 39.1367 193.532 38.876 192.428 38.876C191.784 38.876 191.171 38.9527 190.588 39.106C190.006 39.2593 189.484 39.4587 189.024 39.704C188.564 39.9187 188.15 40.1487 187.782 40.394C187.445 40.6087 187.169 40.808 186.954 40.992L185.068 36.99C185.314 36.7753 185.682 36.5147 186.172 36.208C186.694 35.9013 187.307 35.61 188.012 35.334C188.748 35.0273 189.561 34.782 190.45 34.598C191.37 34.3833 192.352 34.276 193.394 34.276C194.621 34.276 195.74 34.4447 196.752 34.782C197.764 35.0887 198.638 35.5947 199.374 36.3C200.11 36.9747 200.678 37.8487 201.076 38.922C201.506 39.9647 201.72 41.2373 201.72 42.74V57H196.476ZM196.016 46.65C195.403 46.6807 194.774 46.742 194.13 46.834C193.486 46.8953 192.873 46.9873 192.29 47.11C191.064 47.3553 190.205 47.7847 189.714 48.398C189.254 48.9807 189.024 49.6247 189.024 50.33C189.024 51.066 189.285 51.664 189.806 52.124C190.358 52.5533 191.125 52.768 192.106 52.768C192.842 52.768 193.548 52.6147 194.222 52.308C194.928 52.0013 195.526 51.618 196.016 51.158V46.65ZM219.765 31.378C219.581 31.286 219.213 31.1633 218.661 31.01C218.14 30.826 217.435 30.734 216.545 30.734C215.748 30.734 215.073 30.9793 214.521 31.47C214 31.93 213.739 32.6967 213.739 33.77V34.828H218.523V39.428H213.785V57H208.081V39.428H205.137V34.828H208.081V33.632C208.081 32.1907 208.265 30.9793 208.633 29.998C209.001 28.986 209.507 28.1733 210.151 27.56C210.826 26.916 211.608 26.456 212.497 26.18C213.387 25.8733 214.353 25.72 215.395 25.72C216.775 25.72 217.91 25.858 218.799 26.134C219.719 26.3793 220.256 26.548 220.409 26.64L219.765 31.378ZM241.188 45.822C241.188 47.2633 240.958 48.6893 240.498 50.1C240.069 51.48 239.409 52.722 238.52 53.826C237.661 54.93 236.557 55.8193 235.208 56.494C233.889 57.1687 232.341 57.506 230.562 57.506C228.783 57.506 227.219 57.1687 225.87 56.494C224.551 55.8193 223.447 54.93 222.558 53.826C221.699 52.722 221.04 51.48 220.58 50.1C220.151 48.6893 219.936 47.2633 219.936 45.822C219.936 44.3807 220.151 42.97 220.58 41.59C221.04 40.21 221.699 38.9833 222.558 37.91C223.447 36.806 224.551 35.932 225.87 35.288C227.219 34.6133 228.783 34.276 230.562 34.276C232.341 34.276 233.889 34.6133 235.208 35.288C236.527 35.932 237.631 36.806 238.52 37.91C239.409 38.9833 240.069 40.21 240.498 41.59C240.958 42.97 241.188 44.3807 241.188 45.822ZM235.576 45.822C235.576 44.902 235.469 44.028 235.254 43.2C235.039 42.372 234.717 41.6667 234.288 41.084C233.859 40.4707 233.337 39.9953 232.724 39.658C232.111 39.29 231.39 39.106 230.562 39.106C229.734 39.106 229.013 39.29 228.4 39.658C227.787 39.9953 227.265 40.4707 226.836 41.084C226.407 41.6667 226.085 42.372 225.87 43.2C225.655 44.028 225.548 44.902 225.548 45.822C225.548 46.7727 225.655 47.662 225.87 48.49C226.085 49.2873 226.391 49.9927 226.79 50.606C227.219 51.2193 227.741 51.71 228.354 52.078C228.998 52.4153 229.734 52.584 230.562 52.584C231.39 52.584 232.111 52.4153 232.724 52.078C233.337 51.71 233.859 51.2193 234.288 50.606C234.717 49.9927 235.039 49.2873 235.254 48.49C235.469 47.662 235.576 46.7727 235.576 45.822ZM259.695 57V44.35C259.695 42.6633 259.342 41.36 258.637 40.44C257.931 39.52 256.95 39.06 255.693 39.06C254.803 39.06 253.975 39.29 253.209 39.75C252.473 40.21 251.829 40.716 251.277 41.268V57H245.573V34.828H250.771L251.047 36.576C251.936 35.84 252.933 35.2727 254.037 34.874C255.171 34.4753 256.306 34.276 257.441 34.276C258.606 34.276 259.679 34.46 260.661 34.828C261.642 35.1653 262.485 35.7173 263.191 36.484C263.896 37.2507 264.433 38.2473 264.801 39.474C265.199 40.7007 265.399 42.1727 265.399 43.89V57H259.695ZM275.37 47.34C275.492 49.2107 276.075 50.56 277.118 51.388C278.16 52.216 279.51 52.63 281.166 52.63C281.932 52.63 282.653 52.5687 283.328 52.446C284.002 52.2927 284.6 52.1087 285.122 51.894C285.643 51.6793 286.088 51.4647 286.456 51.25C286.824 51.0353 287.1 50.836 287.284 50.652L288.802 55.298C288.587 55.4513 288.234 55.666 287.744 55.942C287.284 56.1873 286.701 56.4327 285.996 56.678C285.29 56.8927 284.462 57.0767 283.512 57.23C282.561 57.414 281.518 57.506 280.384 57.506C278.942 57.506 277.562 57.276 276.244 56.816C274.956 56.356 273.821 55.6507 272.84 54.7C271.858 53.7187 271.076 52.5073 270.494 51.066C269.911 49.6247 269.62 47.9073 269.62 45.914C269.62 44.0433 269.88 42.3873 270.402 40.946C270.954 39.5047 271.69 38.2933 272.61 37.312C273.56 36.3307 274.649 35.5793 275.876 35.058C277.133 34.5367 278.467 34.276 279.878 34.276C281.288 34.276 282.592 34.506 283.788 34.966C284.984 35.426 286.011 36.1467 286.87 37.128C287.759 38.0787 288.449 39.3207 288.94 40.854C289.461 42.3873 289.722 44.212 289.722 46.328V47.34H275.37ZM283.926 43.246C283.864 42.4793 283.696 41.82 283.42 41.268C283.174 40.6853 282.852 40.2253 282.454 39.888C282.086 39.52 281.672 39.2593 281.212 39.106C280.782 38.922 280.338 38.83 279.878 38.83C278.896 38.83 277.961 39.198 277.072 39.934C276.182 40.67 275.661 41.774 275.508 43.246H283.926ZM303.358 57V26.318H312.466C315.809 26.318 318.278 27.1 319.872 28.664C321.498 30.228 322.31 32.5433 322.31 35.61C322.31 38.5847 321.452 40.8387 319.734 42.372C318.048 43.9053 315.579 44.672 312.328 44.672H306.854V57H303.358ZM306.854 41.452H312.558C314.337 41.452 315.778 40.992 316.882 40.072C318.017 39.152 318.584 37.634 318.584 35.518C318.584 33.402 318.048 31.8687 316.974 30.918C315.932 29.9673 314.444 29.492 312.512 29.492H306.854V41.452ZM326.167 57V26.318H329.525V36.806C330.384 36.162 331.334 35.6253 332.377 35.196C333.45 34.736 334.662 34.506 336.011 34.506C338.832 34.506 340.826 35.2573 341.991 36.76C343.187 38.2627 343.785 40.4553 343.785 43.338V57H340.381V43.292C340.381 41.268 339.982 39.7807 339.185 38.83C338.418 37.8487 337.161 37.358 335.413 37.358C334.309 37.358 333.236 37.634 332.193 38.186C331.181 38.7073 330.292 39.2593 329.525 39.842V57H326.167ZM358.4 57.506C356.775 57.506 355.349 57.184 354.122 56.54C352.926 55.8653 351.929 54.9913 351.132 53.918C350.335 52.814 349.721 51.572 349.292 50.192C348.893 48.7813 348.694 47.3553 348.694 45.914C348.694 43.7367 349.139 41.6973 350.028 39.796C350.917 37.8947 352.129 36.5453 353.662 35.748C355.195 34.92 356.775 34.506 358.4 34.506C360.669 34.506 362.571 35.1653 364.104 36.484C365.637 37.772 366.68 39.3207 367.232 41.13C367.815 42.9393 368.106 44.5647 368.106 46.006C368.106 48.2753 367.615 50.376 366.634 52.308C365.683 54.24 364.472 55.5893 363 56.356C361.528 57.1227 359.995 57.506 358.4 57.506ZM358.4 54.654C359.841 54.654 361.083 54.1633 362.126 53.182C363.169 52.2007 363.874 51.02 364.242 49.64C364.61 48.26 364.794 47.0333 364.794 45.96C364.794 44.2733 364.472 42.7247 363.828 41.314C363.215 39.8727 362.417 38.8453 361.436 38.232C360.455 37.6187 359.443 37.312 358.4 37.312C356.836 37.312 355.533 37.8333 354.49 38.876C353.447 39.9187 352.773 41.084 352.466 42.372C352.159 43.66 352.006 44.8407 352.006 45.914C352.006 47.662 352.313 49.272 352.926 50.744C353.539 52.1853 354.337 53.1973 355.318 53.78C356.299 54.3627 357.327 54.654 358.4 54.654ZM373.11 57V35.058H376.192L376.422 36.806C377.281 36.1313 378.278 35.5793 379.412 35.15C380.547 34.7207 381.743 34.506 383 34.506C385.883 34.506 387.907 35.242 389.072 36.714C390.238 38.186 390.82 40.394 390.82 43.338V57H387.462V43.246C387.462 41.406 387.064 39.9647 386.266 38.922C385.5 37.8793 384.227 37.358 382.448 37.358C381.314 37.358 380.225 37.6187 379.182 38.14C378.14 38.6307 377.235 39.1827 376.468 39.796V57H373.11ZM405.939 57.506C402.811 57.506 400.327 56.5247 398.487 54.562C396.647 52.5687 395.727 49.686 395.727 45.914C395.727 43.3993 396.187 41.222 397.107 39.382C398.058 37.542 399.254 36.2693 400.695 35.564C402.136 34.8587 403.578 34.506 405.019 34.506C407.196 34.506 409.006 35.0733 410.447 36.208C411.888 37.3427 412.87 38.8147 413.391 40.624C413.943 42.4333 414.219 44.166 414.219 45.822H399.039C399.039 48.582 399.637 50.744 400.833 52.308C402.029 53.872 403.762 54.654 406.031 54.654C407.38 54.654 408.576 54.424 409.619 53.964C410.662 53.504 411.597 52.9213 412.425 52.216L413.299 55.114C412.624 55.7887 411.582 56.356 410.171 56.816C408.791 57.276 407.38 57.506 405.939 57.506ZM399.361 43.016H410.401C410.34 41.7587 410.002 40.67 409.389 39.75C408.806 38.83 408.086 38.2013 407.227 37.864C406.368 37.496 405.632 37.312 405.019 37.312C403.639 37.312 402.443 37.7567 401.431 38.646C400.419 39.5047 399.729 40.9613 399.361 43.016ZM419.481 57V26.318H435.995V29.492H422.977V39.842H432.591V43.016H422.931V57H419.481ZM439.145 57V35.058H442.549V57H439.145ZM440.847 31.194C440.234 31.194 439.697 31.01 439.237 30.642C438.808 30.2433 438.593 29.676 438.593 28.94C438.593 28.2347 438.808 27.6827 439.237 27.284C439.697 26.8853 440.234 26.686 440.847 26.686C441.461 26.686 441.982 26.8853 442.411 27.284C442.841 27.6827 443.055 28.2347 443.055 28.94C443.055 29.676 442.841 30.2433 442.411 30.642C441.982 31.01 441.461 31.194 440.847 31.194ZM448.579 57V35.058H451.661L451.891 36.806C452.75 36.1313 453.746 35.5793 454.881 35.15C456.016 34.7207 457.212 34.506 458.469 34.506C461.352 34.506 463.376 35.242 464.541 36.714C465.706 38.186 466.289 40.394 466.289 43.338V57H462.931V43.246C462.931 41.406 462.532 39.9647 461.735 38.922C460.968 37.8793 459.696 37.358 457.917 37.358C456.782 37.358 455.694 37.6187 454.651 38.14C453.608 38.6307 452.704 39.1827 451.937 39.796V57H448.579ZM480.442 57.506C478.97 57.506 477.651 57.2147 476.486 56.632C475.351 56.0187 474.385 55.1907 473.588 54.148C472.821 53.1053 472.223 51.8787 471.794 50.468C471.395 49.0267 471.196 47.478 471.196 45.822C471.196 43.522 471.687 41.452 472.668 39.612C473.649 37.772 474.891 36.4687 476.394 35.702C477.897 34.9047 479.491 34.506 481.178 34.506C482.251 34.506 483.156 34.598 483.892 34.782C484.659 34.9353 485.303 35.1193 485.824 35.334V26.318H489.182V57H486.1L485.824 55.206C485.057 56.034 484.229 56.632 483.34 57C482.481 57.3373 481.515 57.506 480.442 57.506ZM480.994 54.654C481.883 54.654 482.742 54.47 483.57 54.102C484.398 53.7033 485.149 53.0593 485.824 52.17V38.416C485.272 38.1093 484.582 37.864 483.754 37.68C482.926 37.4653 482.251 37.358 481.73 37.358C480.013 37.358 478.556 37.864 477.36 38.876C476.164 39.888 475.382 41.0687 475.014 42.418C474.677 43.7367 474.508 44.9327 474.508 46.006C474.508 47.938 474.815 49.6093 475.428 51.02C476.072 52.4307 476.885 53.3967 477.866 53.918C478.847 54.4087 479.89 54.654 480.994 54.654ZM504.318 57.506C501.19 57.506 498.706 56.5247 496.866 54.562C495.026 52.5687 494.106 49.686 494.106 45.914C494.106 43.3993 494.566 41.222 495.486 39.382C496.437 37.542 497.633 36.2693 499.074 35.564C500.515 34.8587 501.957 34.506 503.398 34.506C505.575 34.506 507.385 35.0733 508.826 36.208C510.267 37.3427 511.249 38.8147 511.77 40.624C512.322 42.4333 512.598 44.166 512.598 45.822H497.418C497.418 48.582 498.016 50.744 499.212 52.308C500.408 53.872 502.141 54.654 504.41 54.654C505.759 54.654 506.955 54.424 507.998 53.964C509.041 53.504 509.976 52.9213 510.804 52.216L511.678 55.114C511.003 55.7887 509.961 56.356 508.55 56.816C507.17 57.276 505.759 57.506 504.318 57.506ZM497.74 43.016H508.78C508.719 41.7587 508.381 40.67 507.768 39.75C507.185 38.83 506.465 38.2013 505.606 37.864C504.747 37.496 504.011 37.312 503.398 37.312C502.018 37.312 500.822 37.7567 499.81 38.646C498.798 39.5047 498.108 40.9613 497.74 43.016ZM517.354 57V35.058H520.39L520.712 37.266C521.54 36.4993 522.399 35.8553 523.288 35.334C524.208 34.782 525.19 34.506 526.232 34.506C526.784 34.506 527.413 34.5827 528.118 34.736L527.704 38.002C527.122 37.8793 526.57 37.818 526.048 37.818C525.067 37.818 524.101 38.1093 523.15 38.692C522.23 39.244 521.418 39.8727 520.712 40.578V57H517.354Z" fill="white"/>
</svg>
